<?xml version="1.0" encoding="utf-8"?>
<!-- Generator: Adobe Illustrator 25.2.0, SVG Export Plug-In . SVG Version: 6.00 Build 0)  -->
<svg version="1.1" id="Layer_1" xmlns="http://www.w3.org/2000/svg" xmlns:xlink="http://www.w3.org/1999/xlink" x="0px" y="0px"
	 viewBox="0 0 1033.5 768" style="enable-background:new 0 0 1033.5 768;" xml:space="preserve">
<style type="text/css">
	.st0{fill:none;}
	.st1{fill:#438C8C;}
	.st2{font-family:'PTSansPro-Light';}
	.st3{font-size:293.4554px;}
	.st4{letter-spacing:7;}
	.st5{fill:none;stroke:#438C8C;stroke-width:5;stroke-miterlimit:10;}
</style>
<rect x="176.84" y="228.66" class="st0" width="679.82" height="221.49"/>
<text transform="matrix(1 0 0 1 185.2996 434.0742)" class="st1 st2 st3 st4">nuuii</text>
<circle class="st1" cx="807.4" cy="243" r="25.21"/>
<g>
	<path class="st5" d="M124.82,512.6c48.99,0,48.99,30,97.98,30c48.99,0,48.99-30,97.98-30c48.99,0,48.99,30,97.98,30
		c48.99,0,48.99-30,97.98-30c48.99,0,48.99,30,97.98,30c48.99,0,48.99-30,97.98-30c48.99,0,48.99,30,97.99,30s48.99-30,97.99-30"/>
</g>
</svg>
